<svg version="1" xmlns="http://www.w3.org/2000/svg" width="933.333" height="933.333" viewBox="0 0 700.000000 700.000000"><path d="M249.5 67.9c-.6.5-3 2-5.5 3.4-8.8 4.8-80.5 45.9-80.9 46.3-.7.7-.9 101-.2 102.1.3.6 2.3 2 4.4 3.2 2 1.1 5.2 2.9 7 3.9 1.7 1.1 19.5 11.4 39.5 23 19.9 11.7 36.4 21.2 36.7 21.2.2 0 5.5-3 11.7-6.6 6.2-3.7 14.2-8.2 17.8-10.2 3.6-1.9 7-3.9 7.7-4.4.7-.5 2.7-1.7 4.5-2.7 5-2.6 34-19.1 36.8-21 1.4-.9 4.2-2.5 6.3-3.6l3.7-2V118.3l-18.6-10.9c-10.3-6-21.2-12.4-24.3-14.2-3.1-1.8-6.4-3.5-7.3-3.8-1-.4-1.8-1-1.8-1.5s-.4-.9-.9-.9-8.6-4.5-18.1-10c-9.4-5.5-17.2-10-17.3-10-.2 0-.7.4-1.2.9zM413 96.8c-22.8 13-42.5 24.4-43.7 25.3l-2.2 1.6-.3 50.5c-.2 27.9-.1 50.9.2 51.1.4.4 39.8 23.6 50.5 29.7 1.7.9 10.5 6 19.7 11.4 16.6 9.6 18.6 10.4 20.3 8.7.6-.5 12.3-7.3 26-15.2 13.8-7.8 26.4-15 28-16 1.7-1.1 3.7-2.2 4.5-2.6 2.8-1.3 25.5-14.5 26.3-15.3.9-.8 1.6-100.6.7-101.8-.6-.9-10.3-7-13.9-8.8-.8-.4-10.3-5.9-21-12.2-10.8-6.3-20.9-12.2-22.6-13.2-1.6-.9-8.9-5.1-16.2-9.3-7.2-4.3-13.5-7.7-14-7.7-.4 0-19.5 10.7-42.3 23.8zM132.5 246.7c-4.4 2.5-9.1 5.2-10.5 6-1.4.7-17.6 10-36 20.6l-33.5 19.2-.2 51-.3 51 43.3 25.2c23.7 13.8 43.7 25.3 44.3 25.5 1.1.3 85.7-47.7 88-49.9.9-1 1.2-13.1 1.3-51.7l.2-50.5-6.8-3.9c-20.5-11.9-57.4-33.4-68.4-39.8-7-4.1-12.9-7.4-13-7.4-.2 0-4 2.1-8.4 4.7zM345.5 247.5c-2.2 1.3-5.1 3-6.5 3.7-1.4.8-19.3 11-39.7 22.7L262 295.2l-.1 31.2c0 17.1-.1 40-.2 50.9l-.2 19.8 17.5 10.2c9.6 5.6 18.3 10.6 19.3 11.2.9.5 12.7 7.4 26.2 15.3 13.5 7.8 24.9 14.2 25.4 14.2.9 0 78.8-44.3 85.1-48.4l3.5-2.3V295.7L418 283.8c-11.3-6.6-22.3-13-24.5-14.3-2.2-1.2-9.2-5.3-15.5-9-6.3-3.7-13.5-7.9-16-9.3-2.5-1.4-5.8-3.4-7.5-4.4-3.8-2.3-4.1-2.2-9 .7zM510.5 275.3l-44 25.3-.3 51-.3 51 24.8 14.4c27.2 15.8 42.8 24.9 54.3 31.7 4.1 2.5 8.2 4.5 9 4.5.8.1 21.1-11.2 45-24.9l43.5-25 .3-51 .3-51-10.7-6.3c-5.9-3.4-12.8-7.3-15.3-8.7-2.5-1.4-5-2.9-5.6-3.3-.5-.4-8-4.8-16.5-9.7-8.5-5-21-12.2-27.7-16.2-6.8-3.9-12.4-7.1-12.5-7.1-.2 0-20.1 11.4-44.3 25.3zM234.5 429.6c-4.4 2.5-9.8 5.6-12 6.8-2.2 1.3-16.8 9.6-32.5 18.6-15.7 9-29.7 17-31.2 17.7-1.5.8-3.1 2-3.5 2.6-1.3 2.1-1.3 101.5 0 102.5 1 .8 50.4 29.7 60.9 35.6 2 1.2 8.5 4.9 14.4 8.3 5.9 3.5 11.3 6.3 12.1 6.3.8 0 2.5-.7 3.9-1.7 1.4-.9 20.8-12.1 43.2-24.9l40.7-23.3V475.6l-8.9-5.3c-4.9-2.9-9-5.3-9.1-5.3-.1 0-15.7-9-34.5-20s-34.5-20-34.9-20c-.3 0-4.2 2.1-8.6 4.6zM446.5 432c-1.6.9-18.5 10.6-37.5 21.5s-36.5 20.9-39 22.2c-9.4 5.1-8.4-1.3-8.7 56.1l-.3 50.8 14.2 8.3c7.9 4.6 20.2 11.7 27.3 15.9 7.2 4.1 16.3 9.4 20.2 11.8 4 2.4 7.5 4.4 7.9 4.4.3 0 2.6 1.3 5.1 3 2.4 1.6 4.6 3 4.9 3 .2 0 2.2 1.1 4.4 2.5l3.9 2.5 3.9-2.1c2.2-1.2 22.1-12.6 44.3-25.3l40.4-23.2.3-51.1.3-51.1-21.8-12.6c-12-7-22.5-13.1-23.3-13.6-12.2-7.3-40.9-23.7-42-24.2-.8-.3-2.8.3-4.5 1.2z"/></svg>